<svg xmlns="http://www.w3.org/2000/svg" viewBox="0 0 140 148" fill="none">

  <!-- ══ HOUSE ICON (standalone mark) ══════════════════════════════════════ -->

  <!-- Chimney -->
  <rect x="94" y="8" width="15" height="34" rx="2" fill="#1a3828"/>
  <!-- Chimney cap -->
  <rect x="91" y="6" width="21" height="6" rx="2" fill="#c47b2a"/>

  <!-- Roof -->
  <polygon points="70,12 142,68 0,68" fill="#1a3828"/>
  <!-- Ridge highlight -->
  <polygon points="70,12 81,21 70,23 59,21" fill="#2d5a40"/>

  <!-- Walls -->
  <rect x="6" y="68" width="128" height="74" rx="0" fill="#1a3828"/>

  <!-- Accent band -->
  <rect x="6" y="68" width="128" height="5" fill="#c47b2a"/>

  <!-- Left window -->
  <rect x="13" y="82" width="32" height="28" rx="3" fill="#f5ede0"/>
  <line x1="29" y1="82" x2="29" y2="110" stroke="#1a3828" stroke-width="1.5"/>
  <line x1="13" y1="96" x2="45" y2="96" stroke="#1a3828" stroke-width="1.5"/>

  <!-- Right window -->
  <rect x="95" y="82" width="32" height="28" rx="3" fill="#f5ede0"/>
  <line x1="111" y1="82" x2="111" y2="110" stroke="#1a3828" stroke-width="1.5"/>
  <line x1="95" y1="96" x2="127" y2="96" stroke="#1a3828" stroke-width="1.5"/>

  <!-- Arched door -->
  <path d="M52 142 L52 104 Q70 87 88 104 L88 142 Z" fill="#f5ede0"/>
  <!-- Door knob -->
  <circle cx="57" cy="125" r="2.8" fill="#c47b2a"/>

</svg>
